<svg width="83" height="26" viewBox="0 0 83 26" fill="none" xmlns="http://www.w3.org/2000/svg">
<path d="M73.4348 8.5603C74.6081 8.5603 75.716 8.74874 76.7542 9.12964L77.1458 9.28101C78.0377 9.65082 78.8229 10.1525 79.4973 10.7869H79.4983C80.293 11.4957 80.9139 12.3543 81.3616 13.3562L81.5208 13.741C81.8659 14.6498 82.0354 15.6413 82.0354 16.7097C82.0354 17.7783 81.866 18.7704 81.5208 19.6794L81.3616 20.0642C80.9145 21.0648 80.2945 21.9308 79.5032 22.658V22.6589C78.7306 23.3671 77.8121 23.9084 76.7561 24.2888L76.7571 24.2898C75.7181 24.6714 74.6091 24.8601 73.4348 24.8601C72.2605 24.8601 71.1432 24.6712 70.0862 24.2908L70.0823 24.2898C69.0465 23.9093 68.1314 23.3668 67.342 22.6628L67.3372 22.6589L67.3323 22.6541C66.6589 22.0181 66.1093 21.276 65.6838 20.4324L65.509 20.0642C65.0569 19.0524 64.8352 17.9311 64.8352 16.7097C64.8352 15.4885 65.057 14.368 65.509 13.3562L65.6838 12.988C66.11 12.1452 66.6608 11.4117 67.3372 10.7917L67.6389 10.5281C68.3578 9.93055 69.1732 9.46459 70.0823 9.13062L70.0862 9.12964L70.4846 8.99585C71.4228 8.70467 72.407 8.56033 73.4348 8.5603ZM15.3479 2.2605L15.4788 2.5603L24.718 23.8005L25.0227 24.4998H18.6438L18.5168 24.1882L16.8137 19.9998H9.24146L7.59497 24.1833L7.47095 24.4998H1.20923L1.51099 23.8015L10.6907 2.56128L10.8215 2.2605H15.3479ZM30.886 0.820068V24.4998H25.386V0.820068H30.886ZM38.679 8.91968V24.4998H33.179V8.91968H38.679ZM45.0891 8.91968L45.2112 9.24585L48.4456 17.9236L51.4397 9.25659L51.5559 8.91968H57.177L56.9075 9.60425L51.1477 24.1833L51.0227 24.4998H45.5784L45.4504 24.1912L39.4202 9.61108L39.134 8.91968H45.0891ZM63.1418 8.91968V24.4998H57.6418V8.91968H63.1418ZM73.4348 13.5203C72.4039 13.5203 71.6599 13.8226 71.135 14.3767L70.9504 14.6003C70.5488 15.1418 70.3353 15.8342 70.3352 16.7097C70.3352 17.7108 70.6149 18.4722 71.135 19.0427H71.134C71.6589 19.5974 72.4034 19.9001 73.4348 19.9001C74.4703 19.9001 75.2019 19.5948 75.7053 19.0427L75.7112 19.0369C76.2484 18.4659 76.5354 17.7063 76.5354 16.7097C76.5353 15.7131 76.2486 14.9535 75.7112 14.3826L75.7053 14.3767C75.2019 13.8248 74.4701 13.5203 73.4348 13.5203ZM11.1018 15.0398H14.8245L12.9514 10.3054L11.1018 15.0398ZM35.929 1.72046C36.7784 1.72046 37.5131 2.03131 38.1047 2.6394H38.1057L38.1194 2.65308H38.1184C38.7275 3.24491 39.0392 3.97976 39.0393 4.82983C39.0393 5.57866 38.7984 6.24411 38.3284 6.80835L38.1125 7.0437C37.5169 7.63925 36.7788 7.94019 35.929 7.94019C35.0796 7.94011 34.3357 7.63975 33.7229 7.05054L33.7092 7.03687C33.1199 6.42392 32.8196 5.67933 32.8196 4.82983C32.8196 3.98004 33.1204 3.24186 33.7161 2.64624L33.9514 2.4314C34.5156 1.96148 35.1803 1.72053 35.929 1.72046ZM60.3918 1.72046C61.2413 1.72046 61.976 2.03131 62.5676 2.6394H62.5686L62.5823 2.65308H62.5813C63.1904 3.24491 63.5021 3.97976 63.5022 4.82983C63.5022 5.57866 63.2613 6.24411 62.7913 6.80835L62.5754 7.0437C61.9798 7.63925 61.2417 7.94019 60.3918 7.94019C59.5425 7.94011 58.7986 7.63975 58.1858 7.05054L58.1721 7.03687C57.5828 6.42392 57.2825 5.67933 57.2825 4.82983C57.2825 3.98004 57.5833 3.24186 58.179 2.64624L58.4143 2.4314C58.9785 1.96148 59.6432 1.72053 60.3918 1.72046Z" fill="#01996D" stroke="black"/>
</svg>
